<svg width="85" height="98" viewBox="0 0 85 98" fill="none" xmlns="http://www.w3.org/2000/svg">
<path fill-rule="evenodd" clip-rule="evenodd" d="M86.2615 4.24551C96.8106 8.7808 106.849 14.7742 113.198 24.3398C120.522 35.3748 127.435 48.6352 124.249 61.4801C121.066 74.3154 108.564 82.4364 97.1365 89.095C87.2079 94.8802 75.7797 95.7607 64.3015 96.4103C53.0383 97.0478 39.4016 100.845 31.4778 92.811C23.3788 84.5989 32.929 69.5624 27.6913 59.2892C21.5543 47.2524 0.174841 44.5611 -0.00685908 31.0577C-0.175252 18.5434 15.9673 12.2518 26.9783 6.3038C36.2103 1.31679 46.5951 0.580766 57.0865 0.216506C67.1425 -0.132631 77.0147 0.270154 86.2615 4.24551Z" fill="#CCEAFA"/>
</svg>
