<svg width="498" height="77" viewBox="0 0 498 77" fill="none" xmlns="http://www.w3.org/2000/svg">
<path fill-rule="evenodd" clip-rule="evenodd" d="M187.359 267.788C151.903 252.746 113.039 249.177 82.0605 226.229C45.977 199.499 5.47128 164.775 0.892453 129.658C-3.70431 94.403 37.4693 78.5842 59.7145 54.848C78.5191 34.7831 88.121 2.8052 121.665 0.790667C156.202 -1.28354 191.551 37.5079 228.42 44.7161C261.265 51.1376 286.334 32.5022 319.212 39.4133C361.605 48.3249 408.874 59.9026 441.916 89.5954C475.762 120.01 488.553 160.778 494.675 197.087C500.815 233.505 500.162 271.687 476.645 295.563C453.9 318.655 410.606 320.522 371.061 322.588C339.011 324.262 304.937 316.489 270.831 306.315C241.604 297.597 215.966 279.925 187.359 267.788Z" fill="#CCEAFA"/>
</svg>
