<svg width="93" height="192" viewBox="0 0 93 192" fill="none" xmlns="http://www.w3.org/2000/svg">
<path fill-rule="evenodd" clip-rule="evenodd" d="M-69.7248 37.1195C-59.8187 24.6007 -55.1183 5.12842 -39.6487 1.1038C-24.0678 -2.94979 -11.2065 15.4074 4.74429 17.7453C23.1912 20.4491 45.5236 3.23514 59.47 15.6318C73.0406 27.6945 56.9768 51.4578 62.2072 68.8231C68.34 89.1843 97.1792 103.188 92.0462 123.786C87.128 143.522 57.5752 143.07 40.8299 154.606C24.5311 165.833 14.7289 187.762 -4.89083 190.562C-24.6972 193.389 -45.8361 183.444 -59.677 168.949C-72.5054 155.515 -68.364 133.902 -75.397 116.725C-81.5191 101.773 -99.2836 91.1093 -98.137 75.018C-96.9904 58.9263 -79.7246 49.7567 -69.7248 37.1195Z" fill="#B8DFF5"/>
</svg>
