<svg width="24" height="24" viewBox="0 0 24 24" fill="none" xmlns="http://www.w3.org/2000/svg">
<path fill-rule="evenodd" clip-rule="evenodd" d="M16.9295 0.638794C20.7122 0.638794 23.2539 3.29414 23.2539 7.24587V16.4551C23.2539 20.4068 20.7122 23.0622 16.9295 23.0622H7.15495C3.37217 23.0622 0.830505 20.4068 0.830505 16.4551V7.24587C0.830505 3.29414 3.37217 0.638794 7.15495 0.638794H16.9295ZM16.9295 2.20322H7.15495C4.26389 2.20322 2.39493 4.18169 2.39493 7.24587V16.4551C2.39493 19.5193 4.26389 21.4978 7.15495 21.4978H16.9295C19.8216 21.4978 21.6895 19.5193 21.6895 16.4551V7.24587C21.6895 4.18169 19.8216 2.20322 16.9295 2.20322ZM12.0422 7.23784C12.474 7.23784 12.8244 7.58827 12.8244 8.02006V11.0579L15.8662 11.0581C16.298 11.0581 16.6484 11.4085 16.6484 11.8403C16.6484 12.2721 16.298 12.6225 15.8662 12.6225L12.8244 12.6223V15.6617C12.8244 16.0935 12.474 16.444 12.0422 16.444C11.6104 16.444 11.26 16.0935 11.26 15.6617V12.6223L8.21823 12.6225C7.78541 12.6225 7.43602 12.2721 7.43602 11.8403C7.43602 11.4085 7.78541 11.0581 8.21823 11.0581L11.26 11.0579V8.02006C11.26 7.58827 11.6104 7.23784 12.0422 7.23784Z" fill="white"/>
</svg>
