<svg width="20" height="21" viewBox="0 0 20 21" fill="none" xmlns="http://www.w3.org/2000/svg">
<path fill-rule="evenodd" clip-rule="evenodd" d="M13.1612 0.875C13.5062 0.875 13.7862 1.169 13.7862 1.53125L13.7866 2.27308C15.0034 2.36068 16.0139 2.79829 16.7292 3.55084C17.51 4.37421 17.9208 5.55809 17.9167 6.97821V14.9608C17.9167 17.8763 16.1533 19.6876 13.3158 19.6876H6.26749C3.42999 19.6876 1.66666 17.851 1.66666 14.8943V6.97646C1.66666 4.22651 3.2392 2.46132 5.8039 2.27338L5.80441 1.53125C5.80441 1.169 6.08441 0.875 6.42941 0.875C6.77441 0.875 7.05441 1.169 7.05441 1.53125L7.05416 2.25662H12.5358L12.5362 1.53125C12.5362 1.169 12.8162 0.875 13.1612 0.875ZM16.6667 8.666H2.91666V14.8943C2.91666 17.1396 4.10666 18.3751 6.26749 18.3751H13.3158C15.4767 18.3751 16.6667 17.1623 16.6667 14.9608L16.6667 8.666ZM13.501 14.1718C13.846 14.1718 14.126 14.4658 14.126 14.828C14.126 15.1903 13.846 15.4843 13.501 15.4843C13.156 15.4843 12.8727 15.1903 12.8727 14.828C12.8727 14.4658 13.1485 14.1718 13.4935 14.1718H13.501ZM9.80307 14.1718C10.1481 14.1718 10.4281 14.4658 10.4281 14.828C10.4281 15.1903 10.1481 15.4843 9.80307 15.4843C9.45807 15.4843 9.17474 15.1903 9.17474 14.828C9.17474 14.4658 9.45057 14.1718 9.79557 14.1718H9.80307ZM6.09741 14.1718C6.44241 14.1718 6.72241 14.4658 6.72241 14.828C6.72241 15.1903 6.44241 15.4843 6.09741 15.4843C5.75241 15.4843 5.46824 15.1903 5.46824 14.828C5.46824 14.4658 5.74491 14.1718 6.08991 14.1718H6.09741ZM13.501 10.7709C13.846 10.7709 14.126 11.0649 14.126 11.4271C14.126 11.7894 13.846 12.0834 13.501 12.0834C13.156 12.0834 12.8727 11.7894 12.8727 11.4271C12.8727 11.0649 13.1485 10.7709 13.4935 10.7709H13.501ZM9.80307 10.7709C10.1481 10.7709 10.4281 11.0649 10.4281 11.4271C10.4281 11.7894 10.1481 12.0834 9.80307 12.0834C9.45807 12.0834 9.17474 11.7894 9.17474 11.4271C9.17474 11.0649 9.45057 10.7709 9.79557 10.7709H9.80307ZM6.09741 10.7709C6.44241 10.7709 6.72241 11.0649 6.72241 11.4271C6.72241 11.7894 6.44241 12.0834 6.09741 12.0834C5.75241 12.0834 5.46824 11.7894 5.46824 11.4271C5.46824 11.0649 5.74491 10.7709 6.08991 10.7709H6.09741ZM12.5358 3.56912H7.05416L7.05441 4.41087C7.05441 4.77312 6.77441 5.06712 6.42941 5.06712C6.08441 5.06712 5.80441 4.77312 5.80441 4.41087L5.80396 3.58899C3.9371 3.75366 2.91666 4.94187 2.91666 6.97646V7.3535H16.6667L16.6667 6.97646C16.67 5.89584 16.3933 5.05584 15.8442 4.47834C15.3621 3.97067 14.6574 3.66748 13.7869 3.58941L13.7862 4.41087C13.7862 4.77312 13.5062 5.06712 13.1612 5.06712C12.8162 5.06712 12.5362 4.77312 12.5362 4.41087L12.5358 3.56912Z" fill="#F7763D"/>
</svg>
