<svg width="24" height="29" viewBox="0 0 24 29" fill="none" xmlns="http://www.w3.org/2000/svg">
<path fill-rule="evenodd" clip-rule="evenodd" d="M5.30205 0.000746733C6.57372 0.0214838 7.47994 1.17861 8.62638 2.64265C8.90986 3.00347 9.21611 3.39747 9.55879 3.81222C11.2198 5.83062 10.7474 7.47714 10.366 8.79878C9.95156 10.2407 9.59295 11.4849 11.7401 14.0923C13.8873 16.6996 14.9107 16.2641 16.097 15.7568C17.1865 15.295 18.539 14.7171 20.2035 16.7355C20.5416 17.1461 20.8604 17.5139 21.1564 17.8553C22.3666 19.2544 23.3229 20.359 23.339 21.9074C23.3514 23.2262 22.6911 24.5728 21.0608 26.5525L20.339 25.958L20.9503 26.681C20.5894 27.1303 19.6297 28.3275 17.7501 28.3414H17.7159C14.8789 28.3414 11.18 25.5986 6.72172 20.1862C2.24526 14.7517 -0.0168862 10.2462 9.48943e-05 6.7942C0.0104371 4.51313 0.995214 3.34494 1.36522 2.9067L1.3968 2.86481L1.47337 2.77122C3.10708 0.787372 4.22961 -0.0282851 5.30205 0.000746733ZM5.28042 2.07445H5.27131C4.76007 2.07445 3.98366 2.69656 2.90082 3.97382L2.68338 4.23312L2.68584 4.23249C2.68584 4.23249 2.66726 4.25837 2.6356 4.29758L2.55947 4.39009C2.28396 4.71497 1.71359 5.391 1.70784 6.80526C1.69879 8.78358 2.77009 12.4568 7.9285 18.7194C13.0619 24.9516 16.0822 26.2677 17.7159 26.2677H17.7398C18.9045 26.2594 19.4601 25.5668 19.7276 25.2336C19.8084 25.1327 19.8745 25.0566 19.9212 25.011C21.0562 23.6244 21.6368 22.5944 21.6312 21.9322C21.6243 21.2576 20.9333 20.4613 19.9781 19.3567C19.6741 19.0069 19.3439 18.624 18.9956 18.201C18.0916 17.1074 17.6465 17.2941 16.6617 17.7143C15.3012 18.2936 13.4376 19.0871 10.5333 15.5577C7.62794 12.031 8.27915 9.76789 8.75389 8.11446C9.09771 6.92001 9.25482 6.3767 8.35201 5.27902C7.99909 4.85045 7.68145 4.444 7.38887 4.07074C6.48492 2.91776 5.83258 2.08413 5.28042 2.07445ZM15.0805 4.91888C17.4496 5.4774 19.2792 7.69765 19.7402 10.5759C19.8302 11.14 19.5285 11.6833 19.0663 11.7925C19.0105 11.805 18.9558 11.8119 18.9012 11.8119C18.5005 11.8119 18.1441 11.469 18.0644 10.9741C17.7365 8.92804 16.4375 7.35065 14.7549 6.95388C14.2915 6.84466 13.9898 6.30135 14.0798 5.73869C14.1697 5.17602 14.6251 4.80828 15.0805 4.91888ZM15.0123 0.00862681C19.655 0.634886 23.2605 5.00764 23.7808 10.644C23.8332 11.2135 23.4962 11.7264 23.0283 11.79C22.9964 11.7942 22.9634 11.7969 22.9315 11.7969C22.5023 11.7969 22.1334 11.4057 22.0845 10.8762C21.653 6.209 18.6679 2.58693 14.8233 2.06851C14.3554 2.00491 14.0173 1.4934 14.0696 0.923822C14.1209 0.355627 14.5387 -0.0632616 15.0123 0.00862681Z" fill="black"/>
</svg>
