<svg width="48" height="40" viewBox="0 0 48 40" fill="none" xmlns="http://www.w3.org/2000/svg">
<path d="M1.5 9.58335V8.54169C1.20163 8.54169 0.915483 8.65143 0.704505 8.84678C0.493526 9.04213 0.375 9.30709 0.375 9.58335H1.5ZM26.25 9.58335H27.375C27.375 9.30709 27.2565 9.04213 27.0455 8.84678C26.8345 8.65143 26.5484 8.54169 26.25 8.54169V9.58335ZM26.25 13.75V12.7084C25.9516 12.7084 25.6655 12.8181 25.4545 13.0135C25.2435 13.2088 25.125 13.4738 25.125 13.75H26.25ZM1.5 10.625H26.25V8.54169H1.5V10.625ZM25.125 9.58335V34.5834H27.375V9.58335H25.125ZM2.625 30.4167V9.58335H0.375V30.4167H2.625ZM26.25 14.7917H37.5V12.7084H26.25V14.7917ZM45.375 22.0834V30.4167H47.625V22.0834H45.375ZM27.375 34.5834V13.75H25.125V34.5834H27.375ZM39.885 36.7917C39.2522 37.3769 38.3944 37.7056 37.5 37.7056C36.6056 37.7056 35.7478 37.3769 35.115 36.7917L33.522 38.2667C34.0443 38.7505 34.6645 39.1342 35.3471 39.3961C36.0296 39.6579 36.7612 39.7927 37.5 39.7927C38.2388 39.7927 38.9704 39.6579 39.6529 39.3961C40.3355 39.1342 40.9557 38.7505 41.478 38.2667L39.8873 36.7938L39.885 36.7917ZM35.115 32.375C35.7478 31.7898 36.6056 31.4611 37.5 31.4611C38.3944 31.4611 39.2522 31.7898 39.885 32.375L41.478 30.9C40.9557 30.4162 40.3355 30.0325 39.6529 29.7706C38.9704 29.5088 38.2388 29.3741 37.5 29.3741C36.7612 29.3741 36.0296 29.5088 35.3471 29.7706C34.6645 30.0325 34.0443 30.4162 33.522 30.9L35.1127 32.3729L35.115 32.375ZM12.885 36.7917C12.2522 37.3769 11.3944 37.7056 10.5 37.7056C9.60562 37.7056 8.74781 37.3769 8.115 36.7917L6.522 38.2667C7.04435 38.7505 7.66451 39.1342 8.34706 39.3961C9.02962 39.6579 9.76119 39.7927 10.5 39.7927C11.2388 39.7927 11.9704 39.6579 12.6529 39.3961C13.3355 39.1342 13.9557 38.7505 14.478 38.2667L12.8872 36.7938L12.885 36.7917ZM8.115 32.375C8.74781 31.7898 9.60562 31.4611 10.5 31.4611C11.3944 31.4611 12.2522 31.7898 12.885 32.375L14.478 30.9C13.9557 30.4162 13.3355 30.0325 12.6529 29.7706C11.9704 29.5088 11.2388 29.3741 10.5 29.3741C9.76119 29.3741 9.02962 29.5088 8.34706 29.7706C7.66451 30.0325 7.04435 30.4162 6.522 30.9L8.11275 32.3729L8.115 32.375ZM39.885 32.375C40.5465 32.9834 40.875 33.7813 40.875 34.5834H43.125C43.125 33.2521 42.576 31.9167 41.478 30.9L39.8873 32.3729L39.885 32.375ZM40.875 34.5834C40.875 35.3854 40.5465 36.1834 39.885 36.7917L41.478 38.2667C42.0009 37.7834 42.4156 37.2092 42.6982 36.5771C42.9808 35.945 43.1259 35.2675 43.125 34.5834H40.875ZM33 33.5417H26.25V35.625H33V33.5417ZM35.115 36.7917C34.8009 36.5022 34.5517 36.1581 34.3818 35.7791C34.2119 35.4001 34.1247 34.9937 34.125 34.5834H31.875C31.875 35.9146 32.424 37.25 33.522 38.2667L35.1127 36.7938L35.115 36.7917ZM34.125 34.5834C34.125 33.7813 34.4535 32.9834 35.115 32.375L33.522 30.9C32.9991 31.3833 32.5844 31.9575 32.3018 32.5896C32.0192 33.2217 31.8741 33.8992 31.875 34.5834H34.125ZM8.115 36.7917C7.80091 36.5022 7.55175 36.1581 7.38184 35.7791C7.21194 35.4001 7.12465 34.9937 7.125 34.5834H4.875C4.875 35.9146 5.424 37.25 6.522 38.2667L8.11275 36.7938L8.115 36.7917ZM7.125 34.5834C7.125 33.7813 7.4535 32.9834 8.115 32.375L6.522 30.9C5.9991 31.3833 5.58444 31.9575 5.3018 32.5896C5.01917 33.2217 4.87413 33.8992 4.875 34.5834H7.125ZM26.25 33.5417H15V35.625H26.25V33.5417ZM12.885 32.375C13.5465 32.9834 13.875 33.7813 13.875 34.5834H16.125C16.125 33.2521 15.576 31.9167 14.478 30.9L12.8872 32.3729L12.885 32.375ZM13.875 34.5834C13.875 35.3854 13.5465 36.1834 12.885 36.7917L14.478 38.2667C15.0009 37.7834 15.4156 37.2092 15.6982 36.5771C15.9808 35.945 16.1259 35.2675 16.125 34.5834H13.875ZM45.375 30.4167C45.375 31.2455 45.0194 32.0403 44.3865 32.6264C43.7535 33.2124 42.8951 33.5417 42 33.5417V35.625C43.4918 35.625 44.9226 35.0763 45.9775 34.0995C47.0324 33.1228 47.625 31.798 47.625 30.4167H45.375ZM37.5 14.7917C39.5886 14.7917 41.5916 15.5599 43.0685 16.9274C44.5453 18.2948 45.375 20.1495 45.375 22.0834H47.625C47.625 19.5969 46.5583 17.2124 44.6595 15.4542C42.7607 13.6961 40.1853 12.7084 37.5 12.7084V14.7917ZM0.375 30.4167C0.375 31.798 0.967632 33.1228 2.02252 34.0995C3.07742 35.0763 4.50816 35.625 6 35.625V33.5417C5.10489 33.5417 4.24645 33.2124 3.61351 32.6264C2.98058 32.0403 2.625 31.2455 2.625 30.4167H0.375Z" fill="#F7763D"/>
<path d="M13.875 7.5C13.875 5.8424 13.1638 4.25269 11.898 3.08058C10.6321 1.90848 8.91521 1.25 7.125 1.25C6.52826 1.25 5.95597 1.46949 5.53401 1.86019C5.11205 2.25089 4.875 2.7808 4.875 3.33333C4.875 4.99094 5.58616 6.58065 6.85203 7.75275C8.1179 8.92485 9.83479 9.58333 11.625 9.58333H13.875M13.875 7.5V9.58333M13.875 7.5C13.875 5.8424 14.5862 4.25269 15.852 3.08058C17.1179 1.90848 18.8348 1.25 20.625 1.25C21.2217 1.25 21.794 1.46949 22.216 1.86019C22.6379 2.25089 22.875 2.7808 22.875 3.33333C22.875 4.99094 22.1638 6.58065 20.898 7.75275C19.6321 8.92485 17.9152 9.58333 16.125 9.58333H13.875" stroke="#F7763D" stroke-linejoin="round"/>
</svg>
